<?xml version="1.0" encoding="utf-8"?>
<!-- Generator: Adobe Illustrator 27.0.0, SVG Export Plug-In . SVG Version: 6.00 Build 0)  -->
<svg version="1.1" id="Layer_1" xmlns="http://www.w3.org/2000/svg" xmlns:xlink="http://www.w3.org/1999/xlink" x="0px" y="0px"
	 viewBox="0 0 512 512" style="enable-background:new 0 0 512 512;" xml:space="preserve">
<style type="text/css">
	.st0{fill:#E61D3B;}
	.st1{fill:#FFFCFC;}
</style>
<g id="XMLID_1_">
	<path id="XMLID_3_" class="st0" d="M0,40.38h158.37c0,28.2,0,56.25,0,84.44c-8,0-15.99,0-23.85,0c0,20.48,0,40.96,0,61.44
		c29.18,0,58.21,0,87.39,0c0-20.48,0-40.96,0-61.44c-8,0-15.85,0-23.85,0c0-28.2,0-56.25,0-84.44h158.51
		c0.28,28.2,0,56.25,0.14,84.44c-8.56,0-17.11,0-25.67,0c0,20.48,0,40.96,0,61.44c40.96,0,82.06,0,123.02,0
		c0.14,28.2,0,56.25,0,84.44c-8.56,0-17.11,0-25.67,0c-0.14,38.29,0,76.59,0,114.88c0.14,0.56,0.42,1.68,0.42,2.1
		c8.42,0.28,16.83,0,25.25,0.14c0,27.91,0,55.97,0,83.88H295.56c-0.28-27.91,0-55.97-0.14-83.88c8,0,15.99,0,23.85,0
		c0-5.05,0-10.1,0-15.29c-28.48,0-57.09,0-85.57,0c0,5.19,0,10.24,0,15.29c8,0,15.99-0.14,23.99,0.14
		c-0.28,27.91,0,55.83-0.14,83.74H99.03c-0.14-27.91,0.14-55.83-0.14-83.74c8.56-0.28,17.11,0,25.53-0.14c0-22.3,0.14-44.75,0-67.05
		c-15.85,0.14-31.56,0-47.41,0.14c-1.4,0.14-2.81-0.28-3.79-1.26c-15.29-13.19-30.58-26.37-45.87-39.42
		c-0.84-0.84-2.1-1.68-1.82-3.09c0-50.64-0.14-101.42,0-152.06c-8.56-0.14-16.97,0-25.53,0V40.38z"/>
	<path id="XMLID_4_" class="st1" d="M158.37,40.38h39.7c0,28.2,0,56.25,0,84.44c8,0,15.85,0,23.85,0c0,20.48,0,40.96,0,61.44
		c-29.18,0-58.21,0-87.39,0c0-20.48,0-40.96,0-61.44c8,0,15.99,0,23.85,0C158.37,96.63,158.37,68.43,158.37,40.38z"/>
	<path id="XMLID_5_" class="st1" d="M356.58,40.38H512v431.34h-0.28c0-6.17,0-12.34,0-18.52c-2.67,0-5.33,0-8,0
		c-1.26,2.95-2.24,5.89-4.07,8.56c-1.12-2.95-2.24-5.75-3.51-8.56c-2.81,0-5.47,0-8.28,0c0,6.17,0,12.34,0,18.52h-8.14
		c0-4.77,0-9.4,0-14.17c1.82,0,3.51,0,5.33,0c0-1.54,0-2.95,0-4.35c-5.19,0-10.52,0-15.71,0c0,1.4,0,2.95,0,4.35
		c1.82,0,3.51,0,5.33,0c0,4.63,0,9.4,0,14.03h-20.62c0-27.91,0-55.97,0-83.88c-8.42-0.14-16.83,0.14-25.25-0.14
		c-0.14-0.56-0.42-1.68-0.42-2.1c0-38.29,0-76.59,0-114.88c8.56,0,17.11,0,25.67,0c0-28.2,0-56.25,0-84.44
		c-40.96,0-82.06,0-123.02,0c0-20.48,0-40.96,0-61.44c8.56,0,17.11,0,25.67,0C356.58,96.63,356.72,68.43,356.58,40.38z"/>
	<path id="XMLID_6_" class="st1" d="M11.78,52.16c44.89,0,89.78,0,134.66,0c0,20.2,0,40.4,0,60.46c-8,0-15.99,0-23.99,0
		c0,28.48,0.14,56.95,0,85.43c37.17,0.28,74.2,0,111.38,0.14c0-28.48,0-57.09,0-85.57c-8,0-15.85,0-23.85,0c0-20.2,0-40.4,0-60.46
		c44.89,0,89.64,0,134.52,0c0,20.2,0,40.4,0,60.46c-8.56,0-16.97,0-25.53,0c0,28.48,0,57.09,0,85.57c40.96,0,81.92,0,122.88,0
		c0.14,20.2,0,40.4,0,60.6c-8.42,0-16.97,0.14-25.39,0c-0.28,46.99,0,93.98-0.14,141.12c8.56,0,16.97,0,25.53,0
		c0,20.06,0,40.12,0,60.18c-44.89,0-89.64,0-134.52,0c0-20.06,0-40.12,0-60.18c8-0.14,15.99,0,23.85,0c0-13.19,0-26.23,0-39.42
		c-36.61,0-73.08,0-109.69,0c0,13.19-0.14,26.37,0.14,39.56c8-0.14,15.85-0.14,23.85,0c-0.14,20.06-0.14,40.12,0,60.04
		c-44.89,0.28-89.92,0-134.8,0.14c0-20.06,0-40.12,0-60.18c8.56-0.14,17.11,0,25.81,0c0-30.3,0-60.6,0-90.76
		c-18.66-0.14-37.31,0-55.97,0c-1.4,0.28-2.38-0.98-3.37-1.68c-13.19-11.36-26.37-22.86-39.56-34.09
		c-0.14-53.44-0.14-106.89,0-160.33c-8.56-0.28-17.25,0-25.81-0.14C11.78,92.56,11.78,72.36,11.78,52.16z"/>
	<path id="XMLID_7_" class="st0" d="M23.15,63.52c37.31,0,74.63,0,112.08,0c0,12.62,0,25.25,0,37.73c-8,0-15.99,0-23.85,0
		c0,52.46,0,104.78,0,157.25c8.42,0,16.97,0.14,25.39,0c0.28,13.05,0,25.95,0.14,39c-17.81,0-35.49,0-53.3,0
		c-11.5-9.96-23-19.92-34.65-29.74c0.14-55.41,0-110.82,0-166.22c-8.56-0.28-17.11,0-25.81-0.14
		C23.15,88.77,23.15,76.15,23.15,63.52z"/>
	<path id="XMLID_8_" class="st0" d="M221.49,63.52c37.31,0,74.49,0,111.8,0c0,12.62,0,25.25,0,37.87c-8.56,0-16.97,0-25.53,0
		c0,55.41,0,110.68,0,166.08c-10.38,9.68-21.32,18.94-31.84,28.48c-0.98,0.84-1.96,1.82-3.23,1.68c-17.11,0-34.23,0-51.2,0
		c0-13.05,0-25.95,0-39c7.86,0,15.85,0,23.71,0c0.28-44.61,0-89.21,0.14-133.82c-0.14-7.86,0.28-15.71-0.14-23.43
		c-7.86,0.14-15.71,0-23.57,0.14C221.35,88.77,221.49,76.15,221.49,63.52z"/>
	<path id="XMLID_9_" class="st1" d="M0,124.68c8.56,0,16.97-0.14,25.53,0c-0.14,50.64,0,101.42,0,152.06
		c-0.28,1.4,0.98,2.24,1.82,3.09c15.29,13.05,30.58,26.23,45.87,39.42c0.98,0.98,2.38,1.4,3.79,1.26c15.85-0.14,31.56,0,47.41-0.14
		c0.14,22.3,0,44.75,0,67.05c-8.56,0.14-17.11-0.14-25.53,0.14c0.28,27.91,0,55.83,0.14,83.74H0V124.68z"/>
	<path id="XMLID_10_" class="st0" d="M318.84,209.69c32.82-0.28,65.65,0,98.47-0.14c4.49,0.14,8.84-0.14,13.33,0.14
		c-0.14,12.48,0,25.11,0,37.59c-8.42,0-16.83,0.14-25.39,0c-0.28,54.57-0.14,109.27,0,163.84c8.42-0.14,16.97,0,25.39,0
		c0,12.48,0,24.97,0,37.59c-37.31,0-74.49,0-111.8,0c0-12.48,0-24.97,0-37.59c8-0.14,15.99,0.14,23.99-0.14
		c-0.14-20.62,0-41.38-0.14-62c-44.19,0-88.23,0-132.42,0c0,20.76,0,41.38,0,62.14c7.86,0,15.85,0.14,23.71-0.14
		c0.28,12.48,0.14,25.11,0,37.73c-37.17-0.14-74.49,0-111.66,0c0-12.48,0-24.97,0-37.59c8.56-0.14,17.11,0.28,25.67-0.14
		c-0.28-54.57,0.14-109.13-0.28-163.56c-8.42,0.14-16.97,0-25.39,0.14c0-12.62,0-25.25,0-37.73c37.31,0,74.49,0,111.8,0
		c0,12.62,0,25.25,0,37.73c-7.86,0-15.85,0-23.71,0c-0.28,20.48,0,40.82-0.14,61.3c44.19,0,88.23,0,132.42,0
		c0.14-20.34-0.14-40.68,0.14-61.02c-8-0.42-15.99,0-23.99-0.14C318.84,234.8,318.84,222.31,318.84,209.69z"/>
	<path id="XMLID_11_" class="st0" d="M293.73,296.38c12.2-10.8,24.27-21.74,36.61-32.4c0,10.8,0,21.6,0,32.4
		C318.14,296.38,305.94,296.38,293.73,296.38z"/>
	<path id="XMLID_12_" class="st1" d="M233.7,372.41c28.48,0,57.09,0,85.57,0c0,5.05,0,10.1,0,15.29c-8,0.14-15.99,0-23.85,0
		c0,27.91-0.14,55.97,0.14,83.88h-37.87c0-27.91-0.14-55.83,0.14-83.74c-8-0.28-15.99-0.14-23.99-0.14
		C233.7,382.65,233.7,377.46,233.7,372.41z"/>
	<path id="XMLID_13_" class="st0" d="M469.36,453.06c5.19,0,10.52,0,15.71,0c0,1.4,0,2.95,0,4.35c-1.82,0-3.51,0-5.33,0
		c0,4.77,0,9.4,0,14.17h-5.05c0-4.77,0-9.4,0-14.03c-1.82,0-3.51,0-5.33,0C469.36,456.01,469.36,454.61,469.36,453.06z"/>
	<path id="XMLID_14_" class="st0" d="M487.87,453.06c2.81,0,5.47,0,8.28,0c1.26,2.81,2.38,5.75,3.51,8.56
		c1.82-2.67,2.81-5.75,4.07-8.56c2.67,0,5.33,0,8,0c0,6.17,0,12.34,0,18.52h-5.05c0-4.77,0.14-9.4-0.14-14.17
		c-1.96,3.23-3.23,6.87-4.91,10.24c-1.26-0.14-2.67-0.14-3.93-0.28c-1.4-3.65-2.95-7.29-4.91-10.66c-0.14,4.91,0,9.82-0.14,14.73
		h-4.91C487.87,465.41,487.87,459.24,487.87,453.06z"/>
	<path id="XMLID_15_" class="st1" d="M492.78,456.85c1.96,3.37,3.51,7.01,4.91,10.66c1.26,0.14,2.67,0.14,3.93,0.28
		c1.54-3.37,2.95-7.01,4.91-10.24c0.28,4.63,0.14,9.4,0.14,14.17h-13.89C492.78,466.67,492.64,461.76,492.78,456.85z"/>
</g>
</svg>